<svg xmlns="http://www.w3.org/2000/svg" xmlns:xlink="http://www.w3.org/1999/xlink" width="300" zoomAndPan="magnify" viewBox="0 0 224.87999 112.499997" height="150" preserveAspectRatio="xMidYMid meet" version="1.0"><defs><g/></defs><g fill="#56341c" fill-opacity="1"><g transform="translate(7.213216, 86.99671)"><g><path d="M 40.675781 -65.4375 L 40.675781 -63.855469 C 47.417969 -63.117188 49.523438 -62.90625 49.523438 -59.429688 L 49.523438 -15.699219 L 18.230469 -65.4375 C 13.171875 -65.121094 8.113281 -65.121094 2.738281 -65.4375 L 2.738281 -63.855469 C 8.113281 -63.222656 10.539062 -61.960938 10.539062 -59.324219 L 10.539062 -6.113281 C 10.539062 -2.527344 8.640625 -2.316406 1.582031 -1.582031 L 1.582031 0 C 8.535156 -0.316406 15.382812 -0.316406 21.917969 0 L 21.917969 -1.582031 C 15.59375 -2.316406 13.382812 -2.527344 13.382812 -6.113281 L 13.382812 -58.375 L 50.472656 0 L 52.371094 0 L 52.371094 -59.429688 C 52.371094 -62.90625 54.265625 -63.117188 61.433594 -63.855469 L 61.433594 -65.4375 C 54.476562 -65.121094 47.628906 -65.121094 40.675781 -65.4375 Z M 40.675781 -65.4375 "/></g></g></g><g fill="#56341c" fill-opacity="1"><g transform="translate(63.903418, 86.99671)"><g><path d="M 44.679688 -9.695312 L 25.078125 -35.617188 L 44.46875 -58.058594 C 49.210938 -63.539062 51.84375 -63.644531 55.742188 -63.855469 L 55.742188 -65.4375 C 49.316406 -65.121094 42.78125 -65.121094 36.355469 -65.4375 L 36.355469 -63.855469 C 40.777344 -63.644531 45.625 -63.117188 41.304688 -58.058594 L 17.070312 -29.820312 L 17.070312 -58.585938 C 17.070312 -62.273438 19.074219 -63.222656 24.445312 -63.855469 L 24.445312 -65.4375 C 17.175781 -65.121094 9.378906 -65.121094 2.109375 -65.4375 L 2.109375 -63.855469 C 7.480469 -63.222656 9.484375 -62.273438 9.484375 -58.585938 L 9.484375 -6.847656 C 9.484375 -3.160156 7.480469 -2.210938 2.109375 -1.582031 L 2.109375 0 C 9.378906 -0.316406 17.175781 -0.316406 24.445312 0 L 24.445312 -1.582031 C 19.074219 -2.210938 17.070312 -3.160156 17.070312 -6.847656 L 17.070312 -26.238281 L 20.125 -29.820312 L 36.878906 -7.691406 C 42.042969 -0.84375 46.152344 1.265625 55.320312 1.265625 L 57.851562 -0.738281 C 55.425781 -0.84375 49.316406 -3.582031 44.679688 -9.695312 Z M 44.679688 -9.695312 "/></g></g></g><path stroke-linecap="butt" transform="matrix(0.746672, 0.00378033, -0.00378033, 0.746672, 114.254206, 22.759477)" fill="none" stroke-linejoin="miter" d="M -0.00055909 1.002231 L 123.81972 0.997895 " stroke="#56341c" stroke-width="2" stroke-opacity="1" stroke-miterlimit="4"/><path stroke-linecap="butt" transform="matrix(0.746681, 0, 0, 0.746681, 114.246639, 87.702663)" fill="none" stroke-linejoin="miter" d="M -0.000730304 0.999832 L 129.227334 0.999832 " stroke="#56341c" stroke-width="2" stroke-opacity="1" stroke-miterlimit="4"/><g fill="#56341c" fill-opacity="1"><g transform="translate(105.440626, 52.004401)"><g><path d="M 9.265625 -9.28125 L 9.265625 0 L 8.453125 0 L 2.484375 -7.53125 L 2.484375 0 L 1.515625 0 L 1.515625 -9.28125 L 2.3125 -9.28125 L 8.296875 -1.75 L 8.296875 -9.28125 Z M 9.265625 -9.28125 "/></g></g></g><g fill="#56341c" fill-opacity="1"><g transform="translate(117.82247, 52.004401)"><g><path d="M 1.515625 -9.28125 L 2.484375 -9.28125 L 2.484375 0 L 1.515625 0 Z M 1.515625 -9.28125 "/></g></g></g><g fill="#56341c" fill-opacity="1"><g transform="translate(123.437707, 52.004401)"><g><path d="M 7.84375 0 L 5.71875 -2.984375 C 5.476562 -2.953125 5.234375 -2.9375 4.984375 -2.9375 L 2.484375 -2.9375 L 2.484375 0 L 1.515625 0 L 1.515625 -9.28125 L 4.984375 -9.28125 C 6.160156 -9.28125 7.082031 -8.992188 7.75 -8.421875 C 8.425781 -7.859375 8.765625 -7.082031 8.765625 -6.09375 C 8.765625 -5.375 8.582031 -4.765625 8.21875 -4.265625 C 7.851562 -3.765625 7.332031 -3.40625 6.65625 -3.1875 L 8.921875 0 Z M 4.953125 -3.78125 C 5.867188 -3.78125 6.570312 -3.984375 7.0625 -4.390625 C 7.550781 -4.796875 7.796875 -5.363281 7.796875 -6.09375 C 7.796875 -6.84375 7.550781 -7.414062 7.0625 -7.8125 C 6.570312 -8.21875 5.867188 -8.421875 4.953125 -8.421875 L 2.484375 -8.421875 L 2.484375 -3.78125 Z M 4.953125 -3.78125 "/></g></g></g><g fill="#56341c" fill-opacity="1"><g transform="translate(134.627785, 52.004401)"><g><path d="M 5.25 0.078125 C 4.039062 0.078125 3.101562 -0.265625 2.4375 -0.953125 C 1.769531 -1.640625 1.4375 -2.644531 1.4375 -3.96875 L 1.4375 -9.28125 L 2.40625 -9.28125 L 2.40625 -4 C 2.40625 -2.925781 2.648438 -2.125 3.140625 -1.59375 C 3.628906 -1.0625 4.332031 -0.796875 5.25 -0.796875 C 6.175781 -0.796875 6.878906 -1.0625 7.359375 -1.59375 C 7.847656 -2.125 8.09375 -2.925781 8.09375 -4 L 8.09375 -9.28125 L 9.046875 -9.28125 L 9.046875 -3.96875 C 9.046875 -2.644531 8.710938 -1.640625 8.046875 -0.953125 C 7.378906 -0.265625 6.445312 0.078125 5.25 0.078125 Z M 5.25 0.078125 "/></g></g></g><g fill="#56341c" fill-opacity="1"><g transform="translate(146.731548, 52.004401)"><g><path d="M 9.21875 -9.28125 L 5.109375 0 L 4.140625 0 L 0.046875 -9.28125 L 1.09375 -9.28125 L 4.65625 -1.21875 L 8.234375 -9.28125 Z M 9.21875 -9.28125 "/></g></g></g><g fill="#56341c" fill-opacity="1"><g transform="translate(157.590575, 52.004401)"><g><path d="M 7.328125 -2.484375 L 2.15625 -2.484375 L 1.046875 0 L 0.03125 0 L 4.265625 -9.28125 L 5.234375 -9.28125 L 9.46875 0 L 8.4375 0 Z M 6.96875 -3.265625 L 4.75 -8.25 L 2.515625 -3.265625 Z M 6.96875 -3.265625 "/></g></g></g><g fill="#56341c" fill-opacity="1"><g transform="translate(168.7012, 52.004401)"><g><path d="M 9.265625 -9.28125 L 9.265625 0 L 8.453125 0 L 2.484375 -7.53125 L 2.484375 0 L 1.515625 0 L 1.515625 -9.28125 L 2.3125 -9.28125 L 8.296875 -1.75 L 8.296875 -9.28125 Z M 9.265625 -9.28125 "/></g></g></g><g fill="#56341c" fill-opacity="1"><g transform="translate(181.083042, 52.004401)"><g><path d="M 7.328125 -2.484375 L 2.15625 -2.484375 L 1.046875 0 L 0.03125 0 L 4.265625 -9.28125 L 5.234375 -9.28125 L 9.46875 0 L 8.4375 0 Z M 6.96875 -3.265625 L 4.75 -8.25 L 2.515625 -3.265625 Z M 6.96875 -3.265625 "/></g></g></g><g fill="#56341c" fill-opacity="1"><g transform="translate(105.440626, 71.29674)"><g><path d="M 4.390625 -4.359375 L 2.484375 -2.4375 L 2.484375 0 L 1.515625 0 L 1.515625 -9.28125 L 2.484375 -9.28125 L 2.484375 -3.671875 L 7.9375 -9.28125 L 9.0625 -9.28125 L 5.046875 -5.078125 L 9.34375 0 L 8.171875 0 Z M 4.390625 -4.359375 "/></g></g></g><g fill="#56341c" fill-opacity="1"><g transform="translate(116.471803, 71.29674)"><g><path d="M 7.84375 0 L 5.71875 -2.984375 C 5.476562 -2.953125 5.234375 -2.9375 4.984375 -2.9375 L 2.484375 -2.9375 L 2.484375 0 L 1.515625 0 L 1.515625 -9.28125 L 4.984375 -9.28125 C 6.160156 -9.28125 7.082031 -8.992188 7.75 -8.421875 C 8.425781 -7.859375 8.765625 -7.082031 8.765625 -6.09375 C 8.765625 -5.375 8.582031 -4.765625 8.21875 -4.265625 C 7.851562 -3.765625 7.332031 -3.40625 6.65625 -3.1875 L 8.921875 0 Z M 4.953125 -3.78125 C 5.867188 -3.78125 6.570312 -3.984375 7.0625 -4.390625 C 7.550781 -4.796875 7.796875 -5.363281 7.796875 -6.09375 C 7.796875 -6.84375 7.550781 -7.414062 7.0625 -7.8125 C 6.570312 -8.21875 5.867188 -8.421875 4.953125 -8.421875 L 2.484375 -8.421875 L 2.484375 -3.78125 Z M 4.953125 -3.78125 "/></g></g></g><g fill="#56341c" fill-opacity="1"><g transform="translate(127.661881, 71.29674)"><g><path d="M 8.0625 -0.84375 L 8.0625 0 L 1.515625 0 L 1.515625 -9.28125 L 7.875 -9.28125 L 7.875 -8.421875 L 2.484375 -8.421875 L 2.484375 -5.125 L 7.28125 -5.125 L 7.28125 -4.296875 L 2.484375 -4.296875 L 2.484375 -0.84375 Z M 8.0625 -0.84375 "/></g></g></g><g fill="#56341c" fill-opacity="1"><g transform="translate(138.136894, 71.29674)"><g><path d="M 7.328125 -2.484375 L 2.15625 -2.484375 L 1.046875 0 L 0.03125 0 L 4.265625 -9.28125 L 5.234375 -9.28125 L 9.46875 0 L 8.4375 0 Z M 6.96875 -3.265625 L 4.75 -8.25 L 2.515625 -3.265625 Z M 6.96875 -3.265625 "/></g></g></g><g fill="#56341c" fill-opacity="1"><g transform="translate(149.247521, 71.29674)"><g><path d="M 3.3125 -8.421875 L 0.046875 -8.421875 L 0.046875 -9.28125 L 7.546875 -9.28125 L 7.546875 -8.421875 L 4.296875 -8.421875 L 4.296875 0 L 3.3125 0 Z M 3.3125 -8.421875 "/></g></g></g><g fill="#56341c" fill-opacity="1"><g transform="translate(158.464551, 71.29674)"><g><path d="M 1.515625 -9.28125 L 2.484375 -9.28125 L 2.484375 0 L 1.515625 0 Z M 1.515625 -9.28125 "/></g></g></g><g fill="#56341c" fill-opacity="1"><g transform="translate(164.079785, 71.29674)"><g><path d="M 5.5625 0.078125 C 4.644531 0.078125 3.8125 -0.125 3.0625 -0.53125 C 2.320312 -0.945312 1.738281 -1.507812 1.3125 -2.21875 C 0.894531 -2.9375 0.6875 -3.742188 0.6875 -4.640625 C 0.6875 -5.523438 0.894531 -6.328125 1.3125 -7.046875 C 1.738281 -7.765625 2.320312 -8.328125 3.0625 -8.734375 C 3.8125 -9.148438 4.644531 -9.359375 5.5625 -9.359375 C 6.476562 -9.359375 7.304688 -9.15625 8.046875 -8.75 C 8.785156 -8.34375 9.363281 -7.773438 9.78125 -7.046875 C 10.207031 -6.328125 10.421875 -5.523438 10.421875 -4.640625 C 10.421875 -3.742188 10.207031 -2.9375 9.78125 -2.21875 C 9.363281 -1.5 8.785156 -0.9375 8.046875 -0.53125 C 7.304688 -0.125 6.476562 0.078125 5.5625 0.078125 Z M 5.5625 -0.796875 C 6.300781 -0.796875 6.960938 -0.957031 7.546875 -1.28125 C 8.140625 -1.613281 8.601562 -2.070312 8.9375 -2.65625 C 9.28125 -3.25 9.453125 -3.910156 9.453125 -4.640625 C 9.453125 -5.359375 9.28125 -6.007812 8.9375 -6.59375 C 8.601562 -7.1875 8.140625 -7.648438 7.546875 -7.984375 C 6.960938 -8.316406 6.300781 -8.484375 5.5625 -8.484375 C 4.832031 -8.484375 4.164062 -8.316406 3.5625 -7.984375 C 2.96875 -7.648438 2.5 -7.1875 2.15625 -6.59375 C 1.820312 -6.007812 1.65625 -5.359375 1.65625 -4.640625 C 1.65625 -3.910156 1.820312 -3.25 2.15625 -2.65625 C 2.5 -2.070312 2.96875 -1.613281 3.5625 -1.28125 C 4.164062 -0.957031 4.832031 -0.796875 5.5625 -0.796875 Z M 5.5625 -0.796875 "/></g></g></g><g fill="#56341c" fill-opacity="1"><g transform="translate(176.805923, 71.29674)"><g><path d="M 9.265625 -9.28125 L 9.265625 0 L 8.453125 0 L 2.484375 -7.53125 L 2.484375 0 L 1.515625 0 L 1.515625 -9.28125 L 2.3125 -9.28125 L 8.296875 -1.75 L 8.296875 -9.28125 Z M 9.265625 -9.28125 "/></g></g></g><g fill="#56341c" fill-opacity="1"><g transform="translate(189.187765, 71.29674)"><g><path d="M 4.0625 0.078125 C 3.375 0.078125 2.710938 -0.03125 2.078125 -0.25 C 1.453125 -0.46875 0.96875 -0.757812 0.625 -1.125 L 1 -1.875 C 1.34375 -1.539062 1.789062 -1.269531 2.34375 -1.0625 C 2.90625 -0.851562 3.476562 -0.75 4.0625 -0.75 C 4.894531 -0.75 5.519531 -0.898438 5.9375 -1.203125 C 6.351562 -1.515625 6.5625 -1.910156 6.5625 -2.390625 C 6.5625 -2.765625 6.445312 -3.0625 6.21875 -3.28125 C 6 -3.507812 5.722656 -3.679688 5.390625 -3.796875 C 5.066406 -3.910156 4.613281 -4.039062 4.03125 -4.1875 C 3.332031 -4.363281 2.773438 -4.53125 2.359375 -4.6875 C 1.941406 -4.851562 1.582031 -5.101562 1.28125 -5.4375 C 0.988281 -5.78125 0.84375 -6.238281 0.84375 -6.8125 C 0.84375 -7.28125 0.96875 -7.707031 1.21875 -8.09375 C 1.46875 -8.476562 1.847656 -8.785156 2.359375 -9.015625 C 2.867188 -9.242188 3.503906 -9.359375 4.265625 -9.359375 C 4.796875 -9.359375 5.3125 -9.285156 5.8125 -9.140625 C 6.320312 -8.992188 6.765625 -8.789062 7.140625 -8.53125 L 6.8125 -7.75 C 6.425781 -8.007812 6.007812 -8.203125 5.5625 -8.328125 C 5.125 -8.453125 4.691406 -8.515625 4.265625 -8.515625 C 3.453125 -8.515625 2.835938 -8.359375 2.421875 -8.046875 C 2.015625 -7.734375 1.8125 -7.332031 1.8125 -6.84375 C 1.8125 -6.46875 1.921875 -6.164062 2.140625 -5.9375 C 2.367188 -5.71875 2.65625 -5.546875 3 -5.421875 C 3.34375 -5.304688 3.800781 -5.175781 4.375 -5.03125 C 5.050781 -4.863281 5.597656 -4.695312 6.015625 -4.53125 C 6.441406 -4.375 6.800781 -4.128906 7.09375 -3.796875 C 7.382812 -3.460938 7.53125 -3.015625 7.53125 -2.453125 C 7.53125 -1.984375 7.398438 -1.554688 7.140625 -1.171875 C 6.890625 -0.785156 6.503906 -0.476562 5.984375 -0.25 C 5.460938 -0.03125 4.820312 0.078125 4.0625 0.078125 Z M 4.0625 0.078125 "/></g></g></g></svg>